<?xml version="1.0" encoding="UTF-8" standalone="no"?>
<!-- Created with Inkscape (http://www.inkscape.org/) -->

<svg
   version="1.1"
   id="svg2"
   xml:space="preserve"
   width="116"
   height="116"
   viewBox="0 0 116 116"
   sodipodi:docname="favicon.svg"
   inkscape:version="1.1.2 (08b2f3d93c, 2022-04-05)"
   xmlns:inkscape="http://www.inkscape.org/namespaces/inkscape"
   xmlns:sodipodi="http://sodipodi.sourceforge.net/DTD/sodipodi-0.dtd"
   xmlns="http://www.w3.org/2000/svg"
   xmlns:svg="http://www.w3.org/2000/svg"><defs
     id="defs6"><linearGradient
       x1="0"
       y1="0"
       x2="1"
       y2="0"
       gradientUnits="userSpaceOnUse"
       gradientTransform="matrix(21.898483,68.091026,-68.091026,21.898483,262.07471,266.81738)"
       spreadMethod="pad"
       id="linearGradient26"><stop
         style="stop-opacity:1;stop-color:#ac7a57"
         offset="0"
         id="stop22" /><stop
         style="stop-opacity:1;stop-color:#cca77b"
         offset="1"
         id="stop24" /></linearGradient><clipPath
       clipPathUnits="userSpaceOnUse"
       id="clipPath36"><path
         d="M 0,600 H 800 V 0 H 0 Z"
         id="path34" /></clipPath><clipPath
       clipPathUnits="userSpaceOnUse"
       id="clipPath56"><path
         d="M 0,600 H 800 V 0 H 0 Z"
         id="path54" /></clipPath></defs><sodipodi:namedview
     id="namedview4"
     pagecolor="#ffffff"
     bordercolor="#666666"
     borderopacity="1.0"
     inkscape:pageshadow="2"
     inkscape:pageopacity="0.0"
     inkscape:pagecheckerboard="0"
     showgrid="false"
     inkscape:zoom="8"
     inkscape:cx="21.6875"
     inkscape:cy="62.9375"
     inkscape:window-width="3368"
     inkscape:window-height="1376"
     inkscape:window-x="0"
     inkscape:window-y="27"
     inkscape:window-maximized="1"
     inkscape:current-layer="g8" /><g
     id="g8"
     inkscape:groupmode="layer"
     inkscape:label="PTLogo3"
     transform="matrix(1.3333333,0,0,-1.3333333,0,800)"><g
       id="g10"
       transform="translate(-219.3522,256.68325)"><g
         id="g12"><g
           id="g18"><g
             id="g20"><path
               d="m 262.924,318.761 h -6.363 l 6.363,9.41 z m 0,-16.047 h -17.209 l 8.413,12.449 h 8.793 v -12.449 z m 0,-15.727 h -27.837 l 8.198,12.129 h 19.639 z m 0,-3.598 v -10.346 h -37.266 l 6.995,10.346 z m 0,-13.93 h 44.012 l -9.418,13.93 h -34.591 v 3.598 h 32.159 l -8.203,12.129 h -23.959 v 3.598 h 21.522 l -8.417,12.449 H 262.92 v 3.598 h 10.677 l -10.677,15.788 -22.003,-32.546 -22.005,-32.545 h 44.009 z"
               style="fill:url(#linearGradient26);stroke:none"
               id="path28" /></g></g></g></g><g
       id="g30"
       transform="translate(-219.3522,256.68325)"><g
         id="g32"
         clip-path="url(#clipPath36)"><g
           id="g38"
           transform="translate(236.751,265.3672)"><path
             d="m 0,0 c 7.48,-5.709 16.626,-8.823 26.171,-8.823 9.541,0 18.686,3.118 26.171,8.823 H 45.554 C 39.698,-3.31 33.045,-5.08 26.171,-5.08 19.297,-5.08 12.647,-3.31 6.792,0 H 0.003 Z m 26.171,77.572 c -11.497,0 -22.418,-4.524 -30.545,-12.651 -8.127,-8.127 -12.65,-19.052 -12.65,-30.545 0,-5.833 1.165,-11.522 3.377,-16.772 l 2.557,3.783 c -1.436,4.129 -2.189,8.509 -2.189,12.989 0,10.5 4.133,20.474 11.556,27.897 7.424,7.424 17.398,11.554 27.898,11.554 10.5,0 20.472,-4.134 27.896,-11.554 7.424,-7.423 11.553,-17.397 11.553,-27.897 0,-4.48 -0.752,-8.86 -2.188,-12.989 l 2.557,-3.783 c 2.211,5.25 3.377,10.935 3.377,16.772 0,11.497 -4.523,22.418 -12.65,30.545 -8.127,8.127 -19.052,12.651 -30.545,12.651 z"
             style="fill:#2b3b31;fill-opacity:1;fill-rule:evenodd;stroke:none"
             id="path40" /></g></g></g></g></svg>
